<?xml version="1.0" encoding="utf-8"?>
<!-- Generator: Adobe Illustrator 15.0.0, SVG Export Plug-In . SVG Version: 6.00 Build 0)  -->
<!DOCTYPE svg PUBLIC "-//W3C//DTD SVG 1.1//EN" "http://www.w3.org/Graphics/SVG/1.1/DTD/svg11.dtd">
<svg version="1.1" id="Layer_1" xmlns="http://www.w3.org/2000/svg" xmlns:xlink="http://www.w3.org/1999/xlink" x="0px" y="0px"
	 width="145px" height="145px" viewBox="0 0 145 145" enable-background="new 0 0 145 145" xml:space="preserve">
<g>
	<polyline fill-rule="evenodd" clip-rule="evenodd" fill="#FEFEFE" points="135.333,74.334 72.5,139 6.667,72.5 72.5,9.333 72.5,40 
		37.333,70.667 72.5,107 79.667,99.667 54.333,73.5 	"/>
	<path fill-rule="evenodd" clip-rule="evenodd" fill="#CE8F57" d="M75.508,42.006l0.274-39.535L2.575,70.98l70.059,71.549
		l69.791-71.297H49.4l27.238,28.132l-4.077,4.077L41.408,71.072L75.508,42.006L75.508,42.006z M70.59,39.821l0.168-24.22
		l-60.677,55.36l62.783,63.948l56.851-58.34H61.998l22.128,22.854l-11.184,11.031L33.985,71.044L70.59,39.821L70.59,39.821z"/>
	<g>
		<path fill="#FFFFFF" d="M88.438,59.36v6.597c-0.956,0.455-1.888,0.798-2.796,1.029c-0.907,0.23-1.787,0.346-2.639,0.346
			c-2.168,0-3.969-0.682-5.399-2.045c-1.432-1.363-2.147-3.083-2.147-5.16c0-2.096,0.726-3.83,2.177-5.203s3.287-2.059,5.508-2.059
			c0.839,0,1.638,0.109,2.398,0.328c0.76,0.218,1.49,0.549,2.191,0.992l-0.363,3.396c-0.662-0.636-1.32-1.103-1.976-1.399
			c-0.655-0.296-1.344-0.444-2.063-0.444c-1.278,0-2.336,0.407-3.175,1.221s-1.258,1.833-1.258,3.055
			c0,1.285,0.404,2.334,1.214,3.148c0.809,0.814,1.853,1.221,3.13,1.221c0.295,0,0.593-0.025,0.895-0.075
			c0.301-0.05,0.615-0.122,0.943-0.215v-1.974h-2.703V59.36H88.438z"/>
		<path fill="#FFFFFF" d="M91.844,66.893V53.325h3.36v4.978h5.494v-4.978h3.341v13.568h-3.341v-5.689h-5.494v5.689H91.844z"/>
		<path fill="#FFFFFF" d="M118.43,57.62c-0.615-0.605-1.239-1.054-1.872-1.348c-0.632-0.293-1.296-0.439-1.99-0.439
			c-1.205,0-2.191,0.396-2.958,1.188c-0.767,0.792-1.149,1.809-1.149,3.05s0.38,2.247,1.14,3.018
			c0.761,0.771,1.75,1.156,2.968,1.156c0.721,0,1.44-0.144,2.157-0.431c0.718-0.287,1.434-0.717,2.147-1.291l-0.216,3.603
			c-0.609,0.393-1.276,0.692-2,0.898c-0.724,0.206-1.476,0.309-2.256,0.309c-0.838,0-1.643-0.125-2.412-0.375
			c-0.771-0.25-1.479-0.618-2.128-1.104c-0.917-0.686-1.62-1.524-2.107-2.513c-0.488-0.988-0.732-2.066-0.732-3.233
			c0-1.004,0.18-1.946,0.54-2.826s0.885-1.656,1.572-2.33c0.694-0.673,1.497-1.189,2.408-1.548c0.91-0.359,1.87-0.538,2.879-0.538
			c0.8,0,1.563,0.106,2.29,0.318c0.728,0.212,1.422,0.534,2.084,0.964L118.43,57.62z"/>
		<path fill="#FFFFFF" d="M121.668,66.893V53.325h3.399v10.658h5.553v2.91H121.668z"/>
	</g>
</g>
</svg>
